<?xml version="1.0" encoding="UTF-8"?>
<svg xmlns="http://www.w3.org/2000/svg" width="516" height="314" style=""><g><line x1="378" y1="236" x2="378" y2="251" stroke="#94a3b8" stroke-width="1.5"/><line x1="378" y1="251" x2="315" y2="251" stroke="#94a3b8" stroke-width="1.5"/><text x="346.5" y="248" text-anchor="middle" font-family="sans-serif" font-size="10" fill="#64748b">left</text><line x1="315" y1="251" x2="315" y2="266" stroke="#94a3b8" stroke-width="1.5"/><line x1="378" y1="251" x2="441" y2="251" stroke="#94a3b8" stroke-width="1.5"/><text x="409.5" y="248" text-anchor="middle" font-family="sans-serif" font-size="10" fill="#64748b">right</text><line x1="441" y1="251" x2="441" y2="266" stroke="#94a3b8" stroke-width="1.5"/><line x1="200" y1="192" x2="200" y2="222" stroke="#94a3b8" stroke-width="1.5"/><line x1="200" y1="222" x2="323" y2="222" stroke="#94a3b8" stroke-width="1.5"/><text x="261.5" y="219" text-anchor="middle" font-family="sans-serif" font-size="10" fill="#64748b">value</text><line x1="80" y1="48" x2="80" y2="178" stroke="#94a3b8" stroke-width="1.5"/><line x1="80" y1="81" x2="140" y2="81" stroke="#94a3b8" stroke-width="1.5"/><text x="110" y="78" text-anchor="middle" font-family="sans-serif" font-size="10" fill="#64748b">args[0]</text><line x1="80" y1="131" x2="140" y2="131" stroke="#94a3b8" stroke-width="1.5"/><text x="110" y="128" text-anchor="middle" font-family="sans-serif" font-size="10" fill="#64748b">return_type</text><line x1="80" y1="178" x2="140" y2="178" stroke="#94a3b8" stroke-width="1.5"/><text x="110" y="175" text-anchor="middle" font-family="sans-serif" font-size="10" fill="#64748b">body[0]</text></g><g><g transform="translate(20,20)"><rect x="0" y="0" width="161" height="28" rx="4" fill="#f5f5f5" stroke="#c0c0c0" stroke-width="1.5"/><polygon points="4,11 14,11 9,19" fill="#c0c0c0" pointer-events="none"/><text x="26" y="19" text-anchor="start" font-family="monospace" font-size="13" fill="#1e3a5f" pointer-events="none">FuncDef: red add</text></g><g transform="translate(140,64)"><rect x="0" y="0" width="110" height="34" rx="4" fill="#ffffff" stroke="#c0c0c0" stroke-width="1.5"/><polygon points="4,12 4,22 14,17" fill="#c0c0c0" pointer-events="none"/><text x="26" y="21" font-family="monospace" font-size="13" fill="#000000" pointer-events="none"><tspan x="26">x: int</tspan></text></g><g transform="translate(140,114)"><rect x="0" y="0" width="110" height="34" rx="17" fill="#ffffff" stroke="#c0c0c0" stroke-width="1.5"/><text x="10" y="21" font-family="monospace" font-size="13" fill="#000000" pointer-events="none"><tspan x="10">int</tspan></text></g><g transform="translate(140,164)"><rect x="0" y="0" width="110" height="28" rx="4" fill="#f5f5f5" stroke="#c0c0c0" stroke-width="1.5"/><polygon points="4,11 14,11 9,19" fill="#c0c0c0" pointer-events="none"/><text x="26" y="19" text-anchor="start" font-family="monospace" font-size="13" fill="#1e3a5f" pointer-events="none">Return</text></g><g transform="translate(323,208)"><rect x="0" y="0" width="110" height="28" rx="14" fill="#e8c0c0" stroke="#d78787" stroke-width="1.5"/><polygon points="4,11 14,11 9,19" fill="#d78787" pointer-events="none"/><text x="26" y="19" text-anchor="start" font-family="monospace" font-size="13" fill="#1e3a5f" pointer-events="none">BinOp: +</text></g><g transform="translate(260,266)"><rect x="0" y="0" width="110" height="28" rx="14" fill="#e8c0c0" stroke="#d78787" stroke-width="1.5"/><text x="55" y="19" text-anchor="middle" font-family="monospace" font-size="13" fill="#1e3a5f" pointer-events="none">Name: x</text></g><g transform="translate(386,266)"><rect x="0" y="0" width="110" height="28" rx="14" fill="#b8d0e8" stroke="#87afd7" stroke-width="1.5"/><text x="55" y="19" text-anchor="middle" font-family="monospace" font-size="13" fill="#1e3a5f" pointer-events="none">Name: n</text></g></g><g/></svg>