<?xml version="1.0" encoding="UTF-8"?>
<svg xmlns="http://www.w3.org/2000/svg" width="426" height="184" style=""><g><line x1="213" y1="48" x2="213" y2="63" stroke="#94a3b8" stroke-width="1.5"/><line x1="213" y1="63" x2="75" y2="63" stroke="#94a3b8" stroke-width="1.5"/><text x="144" y="60" text-anchor="middle" font-family="sans-serif" font-size="10" fill="#64748b">left</text><line x1="75" y1="63" x2="75" y2="78" stroke="#94a3b8" stroke-width="1.5"/><line x1="213" y1="63" x2="276" y2="63" stroke="#94a3b8" stroke-width="1.5"/><text x="244.5" y="60" text-anchor="middle" font-family="sans-serif" font-size="10" fill="#64748b">right</text><line x1="276" y1="63" x2="276" y2="78" stroke="#94a3b8" stroke-width="1.5"/><line x1="276" y1="106" x2="276" y2="121" stroke="#94a3b8" stroke-width="1.5"/><line x1="276" y1="121" x2="207" y2="121" stroke="#94a3b8" stroke-width="1.5"/><text x="241.5" y="118" text-anchor="middle" font-family="sans-serif" font-size="10" fill="#64748b">left</text><line x1="207" y1="121" x2="207" y2="136" stroke="#94a3b8" stroke-width="1.5"/><line x1="276" y1="121" x2="345" y2="121" stroke="#94a3b8" stroke-width="1.5"/><text x="310.5" y="118" text-anchor="middle" font-family="sans-serif" font-size="10" fill="#64748b">right</text><line x1="345" y1="121" x2="345" y2="136" stroke="#94a3b8" stroke-width="1.5"/></g><g><g transform="translate(158,20)"><rect x="0" y="0" width="110" height="28" rx="14" fill="#fef9c3" stroke="#e0b840" stroke-width="1.5"/><polygon points="4,11 14,11 9,19" fill="#e0b840" pointer-events="none"/><text x="26" y="19" text-anchor="start" font-family="monospace" font-size="13" fill="#1e3a5f" pointer-events="none">BinOp: +</text></g><g transform="translate(20,78)"><rect x="0" y="0" width="110" height="34" rx="17" fill="#fef3c7" stroke="#e5c04a" stroke-width="1.5"/><text x="10" y="21" font-family="monospace" font-size="13" fill="#000000" pointer-events="none"><tspan x="10">x</tspan></text></g><g transform="translate(221,78)"><rect x="0" y="0" width="110" height="28" rx="14" fill="#fef9c3" stroke="#e0b840" stroke-width="1.5"/><polygon points="4,11 14,11 9,19" fill="#e0b840" pointer-events="none"/><text x="26" y="19" text-anchor="start" font-family="monospace" font-size="13" fill="#1e3a5f" pointer-events="none">BinOp: *</text></g><g transform="translate(146,136)"><rect x="0" y="0" width="122" height="28" rx="14" fill="#fef9c3" stroke="#e0b840" stroke-width="1.5"/><text x="61" y="19" text-anchor="middle" font-family="monospace" font-size="13" fill="#1e3a5f" pointer-events="none">Constant: 2</text></g><g transform="translate(284,136)"><rect x="0" y="0" width="122" height="28" rx="14" fill="#fef9c3" stroke="#e0b840" stroke-width="1.5"/><text x="61" y="19" text-anchor="middle" font-family="monospace" font-size="13" fill="#1e3a5f" pointer-events="none">Constant: 3</text></g></g><g/></svg>