<?xml version="1.0" encoding="UTF-8"?>
<svg xmlns="http://www.w3.org/2000/svg" width="402" height="190" style=""><g><line x1="201" y1="48" x2="201" y2="63" stroke="#94a3b8" stroke-width="1.5"/><line x1="201" y1="63" x2="75" y2="63" stroke="#94a3b8" stroke-width="1.5"/><text x="138" y="60" text-anchor="middle" font-family="sans-serif" font-size="10" fill="#64748b">left</text><line x1="75" y1="63" x2="75" y2="78" stroke="#94a3b8" stroke-width="1.5"/><line x1="201" y1="63" x2="264" y2="63" stroke="#94a3b8" stroke-width="1.5"/><text x="232.5" y="60" text-anchor="middle" font-family="sans-serif" font-size="10" fill="#64748b">right</text><line x1="264" y1="63" x2="264" y2="78" stroke="#94a3b8" stroke-width="1.5"/><line x1="264" y1="106" x2="264" y2="121" stroke="#94a3b8" stroke-width="1.5"/><line x1="264" y1="121" x2="201" y2="121" stroke="#94a3b8" stroke-width="1.5"/><text x="232.5" y="118" text-anchor="middle" font-family="sans-serif" font-size="10" fill="#64748b">left</text><line x1="201" y1="121" x2="201" y2="136" stroke="#94a3b8" stroke-width="1.5"/><line x1="264" y1="121" x2="327" y2="121" stroke="#94a3b8" stroke-width="1.5"/><text x="295.5" y="118" text-anchor="middle" font-family="sans-serif" font-size="10" fill="#64748b">right</text><line x1="327" y1="121" x2="327" y2="136" stroke="#94a3b8" stroke-width="1.5"/></g><g><g transform="translate(146,20)"><rect x="0" y="0" width="110" height="28" rx="14" fill="#e8c0c0" stroke="#d78787" stroke-width="1.5"/><polygon points="4,11 14,11 9,19" fill="#d78787" pointer-events="none"/><text x="26" y="19" text-anchor="start" font-family="monospace" font-size="13" fill="#1e3a5f" pointer-events="none">BinOp: +</text></g><g transform="translate(20,78)"><rect x="0" y="0" width="110" height="34" rx="17" fill="#e8c0c0" stroke="#c07070" stroke-width="1.5"/><text x="10" y="21" font-family="monospace" font-size="13" fill="#000000" pointer-events="none"><tspan x="10">x</tspan></text></g><g transform="translate(209,78)"><rect x="0" y="0" width="110" height="28" rx="14" fill="#b8d0e8" stroke="#87afd7" stroke-width="1.5"/><polygon points="4,11 14,11 9,19" fill="#87afd7" pointer-events="none"/><text x="26" y="19" text-anchor="start" font-family="monospace" font-size="13" fill="#1e3a5f" pointer-events="none">BinOp: *</text></g><g transform="translate(146,136)"><rect x="0" y="0" width="110" height="34" rx="17" fill="#b8d0e8" stroke="#6a9ac4" stroke-width="1.5"/><text x="10" y="21" font-family="monospace" font-size="13" fill="#000000" pointer-events="none"><tspan x="10">2</tspan></text></g><g transform="translate(272,136)"><rect x="0" y="0" width="110" height="34" rx="17" fill="#b8d0e8" stroke="#6a9ac4" stroke-width="1.5"/><text x="10" y="21" font-family="monospace" font-size="13" fill="#000000" pointer-events="none"><tspan x="10">3</tspan></text></g></g><g/></svg>