<?xml version="1.0" encoding="UTF-8"?>
<svg xmlns="http://www.w3.org/2000/svg" width="477" height="132" style=""><g><line x1="238.5" y1="48" x2="238.5" y2="63" stroke="#94a3b8" stroke-width="1.5"/><line x1="238.5" y1="63" x2="112.5" y2="63" stroke="#94a3b8" stroke-width="1.5"/><text x="175.5" y="60" text-anchor="middle" font-family="sans-serif" font-size="10" fill="#64748b">func</text><line x1="112.5" y1="63" x2="112.5" y2="78" stroke="#94a3b8" stroke-width="1.5"/><line x1="238.5" y1="63" x2="276" y2="63" stroke="#94a3b8" stroke-width="1.5"/><text x="257.25" y="60" text-anchor="middle" font-family="sans-serif" font-size="10" fill="#64748b">args[0]</text><line x1="276" y1="63" x2="276" y2="78" stroke="#94a3b8" stroke-width="1.5"/><line x1="238.5" y1="63" x2="402" y2="63" stroke="#94a3b8" stroke-width="1.5"/><text x="320.25" y="60" text-anchor="middle" font-family="sans-serif" font-size="10" fill="#64748b">args[1]</text><line x1="402" y1="63" x2="402" y2="78" stroke="#94a3b8" stroke-width="1.5"/></g><g><g transform="translate(183.5,20)"><rect x="0" y="0" width="110" height="28" rx="14" fill="#e8c0c0" stroke="#d78787" stroke-width="1.5"/><polygon points="4,11 14,11 9,19" fill="#d78787" pointer-events="none"/><text x="26" y="19" text-anchor="start" font-family="monospace" font-size="13" fill="#1e3a5f" pointer-events="none">Call</text></g><g transform="translate(20,78)"><rect x="0" y="0" width="185" height="34" rx="17" fill="#b8d0e8" stroke="#6a9ac4" stroke-width="1.5"/><polygon points="4,12 4,22 14,17" fill="#6a9ac4" pointer-events="none"/><text x="26" y="21" font-family="monospace" font-size="13" fill="#000000" pointer-events="none"><tspan x="26">`operator::i32_add`</tspan></text></g><g transform="translate(221,78)"><rect x="0" y="0" width="110" height="34" rx="17" fill="#e8c0c0" stroke="#c07070" stroke-width="1.5"/><polygon points="4,12 4,22 14,17" fill="#c07070" pointer-events="none"/><text x="26" y="21" font-family="monospace" font-size="13" fill="#000000" pointer-events="none"><tspan x="26">x</tspan></text></g><g transform="translate(347,78)"><rect x="0" y="0" width="110" height="34" rx="17" fill="#b8d0e8" stroke="#6a9ac4" stroke-width="1.5"/><polygon points="4,12 4,22 14,17" fill="#6a9ac4" pointer-events="none"/><text x="26" y="21" font-family="monospace" font-size="13" fill="#000000" pointer-events="none"><tspan x="26">6</tspan></text></g></g><g/></svg>